<?xml version="1.0" encoding="UTF-8"?>
<svg width="74px" height="27px" viewBox="0 0 74 27" version="1.1" xmlns="http://www.w3.org/2000/svg" xmlns:xlink="http://www.w3.org/1999/xlink">
    <!-- Generator: Sketch 64 (93537) - https://sketch.com -->
    <title>icon/logo/red</title>
    <desc>Created with Sketch.</desc>
    <g id="icon/logo/red" stroke="none" stroke-width="1" fill="none" fill-rule="evenodd">
        <path d="M35.1,18.64 L38.68,8.24 L36.6,8.24 L34.98,12.98 L33.92,16.62 L33.8,16.62 L32.74,12.98 L31.16,8.24 L29,8.24 L32.54,18.64 L35.1,18.64 Z M43.12,18.88 C43.88,18.88 44.5266667,18.7133333 45.06,18.38 C45.5933333,18.0466667 45.96,17.5533333 46.16,16.9 L46.16,16.9 L46.26,16.9 C46.3266667,17.4066667 46.5133333,17.8233333 46.82,18.15 C47.1266667,18.4766667 47.5666667,18.64 48.14,18.64 L48.14,18.64 L49.36,18.64 L49.36,16.86 L48.26,16.86 L48.26,11.64 C48.26,10.4666667 47.9,9.56666667 47.18,8.94 C46.46,8.31333333 45.4266667,8 44.08,8 C43.0666667,8 42.2466667,8.19 41.62,8.57 C40.9933333,8.95 40.5066667,9.43333333 40.16,10.02 L40.16,10.02 L41.46,11.2 C41.7266667,10.7866667 42.0533333,10.4466667 42.44,10.18 C42.8266667,9.91333333 43.3266667,9.78 43.94,9.78 C44.6733333,9.78 45.2133333,9.95333333 45.56,10.3 C45.9066667,10.6466667 46.08,11.14 46.08,11.78 L46.08,11.78 L46.08,12.66 L44.2,12.66 C42.7466667,12.66 41.6433333,12.92 40.89,13.44 C40.1366667,13.96 39.76,14.74 39.76,15.78 C39.76,16.7266667 40.05,17.48 40.63,18.04 C41.21,18.6 42.04,18.88 43.12,18.88 Z M43.74,17.22 C43.1933333,17.22 42.7633333,17.1033333 42.45,16.87 C42.1366667,16.6366667 41.98,16.2866667 41.98,15.82 L41.98,15.82 L41.98,15.46 C41.98,14.5266667 42.7333333,14.06 44.24,14.06 L44.24,14.06 L46.08,14.06 L46.08,15.56 C46.08,16.0666667 45.86,16.47 45.42,16.77 C44.98,17.07 44.42,17.22 43.74,17.22 Z M55.58,18.88 C56.3,18.88 56.9566667,18.7533333 57.55,18.5 C58.1433333,18.2466667 58.6466667,17.8833333 59.06,17.41 C59.4733333,16.9366667 59.7933333,16.3633333 60.02,15.69 C60.2466667,15.0166667 60.36,14.2666667 60.36,13.44 C60.36,12.6133333 60.2466667,11.8633333 60.02,11.19 C59.7933333,10.5166667 59.4733333,9.94333333 59.06,9.47 C58.6466667,8.99666667 58.1433333,8.63333333 57.55,8.38 C56.9566667,8.12666667 56.3,8 55.58,8 C54.86,8 54.2033333,8.12666667 53.61,8.38 C53.0166667,8.63333333 52.5133333,8.99666667 52.1,9.47 C51.6866667,9.94333333 51.3666667,10.5166667 51.14,11.19 C50.9133333,11.8633333 50.8,12.6133333 50.8,13.44 C50.8,14.2666667 50.9133333,15.0166667 51.14,15.69 C51.3666667,16.3633333 51.6866667,16.9366667 52.1,17.41 C52.5133333,17.8833333 53.0166667,18.2466667 53.61,18.5 C54.2033333,18.7533333 54.86,18.88 55.58,18.88 Z M55.58,17.08 C54.8333333,17.08 54.2333333,16.85 53.78,16.39 C53.3266667,15.93 53.1,15.24 53.1,14.32 L53.1,14.32 L53.1,12.56 C53.1,11.64 53.3266667,10.95 53.78,10.49 C54.2333333,10.03 54.8333333,9.8 55.58,9.8 C56.3266667,9.8 56.9266667,10.03 57.38,10.49 C57.8333333,10.95 58.06,11.64 58.06,12.56 L58.06,12.56 L58.06,14.32 C58.06,15.24 57.8333333,15.93 57.38,16.39 C56.9266667,16.85 56.3266667,17.08 55.58,17.08 Z M64.96,18.64 L64.96,11.68 C64.96,11.3733333 65.0233333,11.1066667 65.15,10.88 C65.2766667,10.6533333 65.4466667,10.4666667 65.66,10.32 C65.8733333,10.1733333 66.1166667,10.0633333 66.39,9.99 C66.6633333,9.91666667 66.94,9.88 67.22,9.88 C68.5266667,9.88 69.18,10.6933333 69.18,12.32 L69.18,12.32 L69.18,18.64 L71.36,18.64 L71.36,12.04 C71.36,10.7466667 71.0633333,9.75 70.47,9.05 C69.8766667,8.35 69.0466667,8 67.98,8 C67.18,8 66.55,8.18666667 66.09,8.56 C65.63,8.93333333 65.2866667,9.4 65.06,9.96 L65.06,9.96 L64.96,9.96 L64.96,8.24 L62.78,8.24 L62.78,18.64 L64.96,18.64 Z" id="vaon" fill="#000000" fill-rule="nonzero"></path>
        <g id="icon/logo/icon" transform="translate(0.000000, 8.000000)" fill="#B71D1D">
            <polygon id="Triangle" points="15 0 20.5 11 9.5 11"></polygon>
            <polygon id="Triangle" transform="translate(5.500000, 5.500000) rotate(-180.000000) translate(-5.500000, -5.500000) " points="5.5 0 11 11 0 11"></polygon>
        </g>
    </g>
</svg>