<?xml version="1.0" encoding="UTF-8"?>
<svg width="66px" height="27px" viewBox="0 0 66 27" version="1.1" xmlns="http://www.w3.org/2000/svg" xmlns:xlink="http://www.w3.org/1999/xlink" style="background: #000000;">
    <!-- Generator: Sketch 64 (93537) - https://sketch.com -->
    <title>logo/white</title>
    <desc>Created with Sketch.</desc>
    <g id="logo/white" stroke="none" stroke-width="1" fill="none" fill-rule="evenodd">
        <rect fill="#000000" x="0" y="0" width="66" height="27"></rect>
        <path d="M28.76,21 L32.26,10.56 L29.82,10.56 L28.4,15.06 L27.38,18.78 L27.24,18.78 L26.22,15.06 L24.76,10.56 L22.24,10.56 L25.72,21 L28.76,21 Z M36.0266666,21.24 C37.5866666,21.24 38.7266666,20.54 39.0666666,19.2 L39.1866666,19.2 C39.3466666,20.28 40.0266666,21 41.1266666,21 L42.5466666,21 L42.5466666,18.96 L41.5066666,18.96 L41.5066666,14.04 C41.5066666,11.66 40.0066666,10.32 37.1866666,10.32 C35.0866666,10.32 33.8666666,11.12 33.1066666,12.32 L34.6266666,13.68 C35.1266666,12.96 35.8066666,12.36 37.0066666,12.36 C38.3666666,12.36 38.9466666,13.04 38.9466666,14.2 L38.9466666,14.96 L37.1666666,14.96 C34.3266666,14.96 32.7066666,16.02 32.7066666,18.16 C32.7066666,20.02 33.9066666,21.24 36.0266666,21.24 Z M36.8866666,19.38 C35.8866666,19.38 35.3066666,18.96 35.3066666,18.12 L35.3066666,17.78 C35.3066666,16.96 35.9666666,16.5 37.3066666,16.5 L38.9466666,16.5 L38.9466666,17.88 C38.9466666,18.86 38.0266666,19.38 36.8866666,19.38 Z M48.4333332,21.24 C51.4333332,21.24 53.2933332,19.12 53.2933332,15.76 C53.2933332,12.42 51.4333332,10.32 48.4333332,10.32 C45.4533332,10.32 43.5933332,12.42 43.5933332,15.76 C43.5933332,19.12 45.4533332,21.24 48.4333332,21.24 Z M48.4333332,19.18 C47.1133332,19.18 46.2733332,18.32 46.2733332,16.74 L46.2733332,14.8 C46.2733332,13.24 47.1133332,12.38 48.4333332,12.38 C49.7733332,12.38 50.6133332,13.24 50.6133332,14.8 L50.6133332,16.74 C50.6133332,18.32 49.7733332,19.18 48.4333332,19.18 Z M57.7799998,21 L57.7799998,14.1 C57.7799998,12.98 58.7999998,12.42 59.8599998,12.42 C61.0799998,12.42 61.5799998,13.18 61.5799998,14.66 L61.5799998,21 L64.1399998,21 L64.1399998,14.4 C64.1399998,11.8 62.9399998,10.32 60.7999998,10.32 C59.1799998,10.32 58.2999998,11.18 57.8799998,12.3 L57.7799998,12.3 L57.7799998,10.56 L55.2199998,10.56 L55.2199998,21 L57.7799998,21 Z" id="vaon" fill="#FFFFFF" fill-rule="nonzero"></path>
        <path d="M12.5066666,7 L7.826,20.959 L4.859,20.959 L9.42,7 L6.8,7 L4.66,13.8 L3.44,18.44 L3.38,18.44 L2.14,13.8 L-1.17896803e-11,7 L12.5066666,7 Z M16.444,17.4 L17.5315705,20.96 L10.506,20.959 L11.6066666,17.4 L16.444,17.4 Z M14.013,9.443 L15.753,15.139 L12.2466666,15.14 L14.013,9.443 Z" id="Combined-Shape" fill="#FFFFFF"></path>
    </g>
</svg>